<?xml version="1.0" encoding="UTF-8"?>
<svg version="1.1" xmlns="http://www.w3.org/2000/svg" width="1352" height="740">
<path d="M0 0 C1.2387085 0.29003906 1.2387085 0.29003906 2.50244141 0.5859375 C34.85846003 8.42835383 67.74511976 26.89420439 88 54 C88 54.66 88 55.32 88 56 C89.70929688 55.22076172 89.70929688 55.22076172 91.453125 54.42578125 C126.13271603 38.99204808 164.76099833 36.2083727 200.59985352 49.73144531 C234.88922126 63.22849619 262.85292331 89.23566944 278 123 C281.17443264 130.8335123 283.73267574 138.86306059 286 147 C287.24652344 147.09796875 288.49304688 147.1959375 289.77734375 147.296875 C324.77206565 150.27161661 355.51788585 163.20886128 379 190 C401.70838412 217.02183598 409.77595278 249.83476655 406.77294922 284.63085938 C403.62282346 311.4097062 390.45911187 334.85923703 372 354 C371.01580078 355.07894531 371.01580078 355.07894531 370.01171875 356.1796875 C352.22911642 375.14271953 322.86171388 388.25978331 297.03588676 389.13422108 C295.56226746 389.14352475 294.08860834 389.14753191 292.61495972 389.14717102 C291.79735707 389.15084771 290.97975443 389.1545244 290.13737595 389.1583125 C287.4117272 389.16928037 284.68611666 389.17318138 281.96044922 389.17700195 C280.00023784 389.18327179 278.04002764 389.18991905 276.07981873 389.19691467 C269.65478331 389.2178947 263.22974781 389.22831106 256.8046875 389.23828125 C254.58761712 389.242331 252.37054685 389.24644799 250.15347672 389.25063133 C239.73585136 389.2696693 229.31823303 389.28390353 218.90059364 389.2922433 C206.89784301 389.30201227 194.89527697 389.32832893 182.89259136 389.36874419 C173.59975338 389.39895528 164.30696818 389.41371689 155.01408207 389.41702431 C149.4709427 389.41936894 143.92800084 389.42825316 138.3849144 389.45348549 C133.16619258 389.47685886 127.94779704 389.48096227 122.72903633 389.47072411 C120.82198688 389.4702309 118.91492085 389.47648736 117.00792122 389.49028015 C101.27732194 389.59761903 89.03962742 387.50630902 76 378 C75.36578125 377.56171875 74.7315625 377.1234375 74.078125 376.671875 C63.4757985 368.59854381 55.86170567 353.99507425 54 341 C52.87751399 323.54041936 54.79425616 308.03999864 66.52668381 294.19892883 C70.95444497 289.34989439 75.65513143 284.77029568 80.33984375 280.171875 C81.83309161 278.68797135 83.32522549 277.20294596 84.81629944 275.71685791 C88.71296432 271.83913586 92.62441351 267.97667722 96.53930664 264.11737061 C100.54383877 260.16430668 104.53396837 256.1967616 108.52539062 252.23046875 C116.3363561 244.47286622 124.16304209 236.73133724 132 229 C142.97066796 234.48533398 150.32692545 245.32692545 159 254 C159.33 213.08 159.66 172.16 160 130 C119.08 130.33 78.16 130.66 36 131 C44.25 139.25 52.5 147.5 61 156 C59.35381765 159.2923647 58.41739708 160.83315192 55.95064926 163.30382633 C55.32132295 163.93898483 54.69199665 164.57414333 54.04359984 165.22854906 C53.35082261 165.91754697 52.65804538 166.60654488 51.9442749 167.31642151 C51.20923744 168.05528451 50.47419999 168.79414752 49.71688867 169.55540031 C47.24537947 172.03725198 44.76675324 174.51187098 42.28808594 176.98657227 C40.51701676 178.76198754 38.7463664 180.53782069 36.97610474 182.31404114 C32.65893527 186.64323556 28.33703158 190.96765295 24.01267681 195.28966881 C20.49293995 198.80762176 16.97497573 202.32733794 13.45825958 205.84831047 C12.95745694 206.3497083 12.45665429 206.85110614 11.94067581 207.36769785 C10.92314396 208.38644151 9.90561327 209.40518633 8.88808373 210.42393231 C-0.66142093 219.9843199 -10.21744421 229.53817124 -19.77543876 239.09006994 C-28.49596975 247.80544567 -37.20829339 256.52897264 -45.91671613 265.25644553 C-54.87210815 274.23127623 -63.83311415 283.2004665 -72.8001039 292.16371006 C-77.82856739 297.19026874 -82.8548505 302.21896022 -87.87525177 307.25357246 C-92.60583124 311.99740686 -97.344315 316.73320785 -102.08801651 321.46392632 C-103.81986269 323.19342048 -105.54920132 324.92543017 -107.27571487 326.6602478 C-134.0389196 353.54277905 -163.71431647 373.95306853 -203 374.25 C-223.31566312 374.0964489 -241.36702251 368.85098937 -259 359 C-259.98613281 358.45601563 -260.97226562 357.91203125 -261.98828125 357.3515625 C-284.05496635 344.25844978 -300.21530726 321.50134102 -306.71582031 296.85498047 C-314.88913222 264.64735009 -308.34004603 233.48602148 -292.31640625 205.0078125 C-275.85388438 177.7676684 -248.96932852 158.63079427 -218.23828125 150.96484375 C-209.43205919 148.90153581 -201.02766735 147.87602454 -192 148 C-191.87044922 146.09154297 -191.87044922 146.09154297 -191.73828125 144.14453125 C-189.03571875 108.68786431 -176.46305056 75.37053318 -152.01953125 49.171875 C-150.24915862 47.26795395 -148.58614232 45.32108849 -146.9375 43.3125 C-124.29579156 16.93796936 -86.26163143 1.07924605 -52.38305664 -2.82128906 C-35.09542585 -4.11772854 -16.90677596 -4.01140784 0 0 Z " fill="#25A5CB" transform="translate(625,3)"/>
<path d="M0 0 C0.495 0.99 0.495 0.99 1 2 C1.33 1.67 1.66 1.34 2 1 C35.72619377 1.16195051 66.3533409 13.9956671 90.125 37.9375 C91.75532467 39.6198563 93.38091635 41.30682269 95 43 C96.10988281 44.05380859 96.10988281 44.05380859 97.2421875 45.12890625 C99 47 99 47 100 50 C100.66 50.66 101.32 51.32 102 52 C104 54 104 54 104 57 C104.66 57.33 105.32 57.66 106 58 C106.33333333 59.33333333 106.66666667 60.66666667 107 62 C107.66 62.33 108.32 62.66 109 63 C117.44230069 76.68610086 122.66824472 93.61053627 123.76072693 109.59875488 C123.97571252 112.06092035 123.97571252 112.06092035 124.47840881 114.71374512 C126.114004 124.06605248 127.31035878 134.30252669 121.84136963 142.61404419 C115.42677301 151.25297316 107.24093942 158.48984802 99.32012939 165.7086792 C96.08822734 168.68502278 92.94049991 171.74778136 89.78125 174.80078125 C60.27075319 203.11883042 29.53456745 226.55637086 -13.32568359 226.23242188 C-32.77796459 225.8186316 -50.13064026 220.42438017 -67 211 C-67.98613281 210.45601562 -68.97226562 209.91203125 -69.98828125 209.3515625 C-92.05496635 196.25844978 -108.21530726 173.50134102 -114.71582031 148.85498047 C-122.88913222 116.64735009 -116.34004603 85.48602148 -100.31640625 57.0078125 C-83.85388438 29.7676684 -56.96932852 10.63079427 -26.23828125 2.96484375 C-17.48218248 0.91327976 -8.99768817 -0.30500638 0 0 Z " fill="#19A1C8" transform="translate(433,151)"/>
<path d="M0 0 C46.2 0 92.4 0 140 0 C140 10.23 140 20.46 140 31 C105.02 31 70.04 31 34 31 C34 46.84 34 62.68 34 79 C65.02 79 96.04 79 128 79 C128 88.9 128 98.8 128 109 C96.98 109 65.96 109 34 109 C34 125.5 34 142 34 159 C69.64 159 105.28 159 142 159 C142 168.9 142 178.8 142 189 C95.14 189 48.28 189 0 189 C0 126.63 0 64.26 0 0 Z " fill="#1C2246" transform="translate(873,461)"/>
<path d="M0 0 C11.22 0 22.44 0 34 0 C34 26.07 34 52.14 34 79 C63.37 79 92.74 79 123 79 C123 52.93 123 26.86 123 0 C134.22 0 145.44 0 157 0 C157 62.37 157 124.74 157 189 C145.78 189 134.56 189 123 189 C123 162.93 123 136.86 123 110 C93.63 110 64.26 110 34 110 C34 136.07 34 162.14 34 189 C22.78 189 11.56 189 0 189 C0 126.63 0 64.26 0 0 Z " fill="#1C2246" transform="translate(1195,461)"/>
<path d="M0 0 C22 0 22 0 26.55078125 4.25 C27.39785436 5.84604535 28.23975132 7.44610293 29.01422119 9.07861328 C31.02229063 12.9925521 33.64380792 16.54922666 36.10546875 20.1875 C37.25542528 21.93415832 38.40205631 23.68300981 39.5456543 25.43383789 C55.09641641 49.20548338 70.91681821 72.78879572 86.85368347 96.3028717 C87.90849153 97.86452117 88.95466323 99.43199485 90 101 C95.44483913 93.63361147 100.6424171 86.14455484 105.6875 78.5 C107.25571603 76.1327201 108.82663182 73.76724149 110.3984375 71.40234375 C110.82500137 70.76042587 111.25156525 70.118508 111.6910553 69.45713806 C115.4907943 63.74775109 119.32442022 58.06151318 123.1640625 52.37890625 C123.79220352 51.44907928 124.42034454 50.51925232 125.06752014 49.56124878 C127.59413034 45.82207553 130.1212342 42.08324312 132.65170288 38.34667969 C133.85073918 36.57607459 135.04799567 34.80426286 136.24342346 33.03121948 C137.42351327 31.28972045 138.61345745 29.55485685 139.81333923 27.82693481 C143.40521531 22.60546987 146.47871328 17.36655252 149.2046814 11.64108276 C151.67560339 7.45216434 154.93440163 3.77552641 158 0 C165.59 0 173.18 0 181 0 C181 62.37 181 124.74 181 189 C173.74 189 166.48 189 159 189 C158.67 139.83 158.34 90.66 158 40 C152.39 48.25 146.78 56.5 141 65 C132.5 77.5 132.5 77.5 128.2578125 83.73828125 C124.67788569 89.00283109 121.09835314 94.26764844 117.52026367 99.53344727 C116.10297337 101.61720434 114.68389754 103.6997482 113.26293945 105.78100586 C109.71437796 110.98206144 106.19903818 116.20096893 102.73828125 121.4609375 C102.05652832 122.48743408 101.37477539 123.51393066 100.67236328 124.5715332 C99.37694011 126.52359093 98.09222206 128.48280748 96.81982422 130.44995117 C95.95574951 131.74509644 95.95574951 131.74509644 95.07421875 133.06640625 C94.57494873 133.82896729 94.07567871 134.59152832 93.5612793 135.37719727 C93.04605713 135.91272217 92.53083496 136.44824707 92 137 C90.68 137 89.36 137 88 137 C86.40698242 135.32958984 86.40698242 135.32958984 84.85546875 132.9609375 C84.26894531 132.08179688 83.68242187 131.20265625 83.078125 130.296875 C82.45421875 129.33265625 81.8303125 128.3684375 81.1875 127.375 C79.83760115 125.34090584 78.48733057 123.30705833 77.13671875 121.2734375 C76.44884277 120.22768555 75.7609668 119.18193359 75.05224609 118.10449219 C71.92052859 113.36705229 68.70950514 108.68492071 65.5 104 C64.24955481 102.16697029 62.99955632 100.33363576 61.75 98.5 C60.821875 97.13875 60.821875 97.13875 59.875 95.75 C54.25 87.5 54.25 87.5 52.37255859 84.74633789 C51.13079775 82.92514262 49.88893685 81.10401558 48.64697266 79.28295898 C45.3950618 74.51448681 42.14523851 69.74460941 38.8984375 64.97265625 C38.22490234 63.98330078 37.55136719 62.99394531 36.85742188 61.97460938 C35.57422224 60.08963336 34.29163003 58.20424365 33.00976562 56.31835938 C32.42646484 55.46177734 31.84316406 54.60519531 31.2421875 53.72265625 C30.7354248 52.97765869 30.22866211 52.23266113 29.70654297 51.46508789 C27.50560098 48.2858445 25.24750118 45.14650165 23 42 C22.67 90.51 22.34 139.02 22 189 C14.74 189 7.48 189 0 189 C0 126.63 0 64.26 0 0 Z " fill="#1C2246" transform="translate(352,461)"/>
<path d="M0 0 C1.35219577 1.31420019 2.69343563 2.64042466 4 4 C2.54363303 8.75746544 -0.30552945 11.81122047 -3.6875 15.3125 C-4.77031886 16.45758907 -5.85235232 17.60342134 -6.93359375 18.75 C-7.45808105 19.30300781 -7.98256836 19.85601562 -8.52294922 20.42578125 C-11.44078823 23.53557066 -14.22363052 26.76416092 -17 30 C-18.03125 29.195625 -19.0625 28.39125 -20.125 27.5625 C-38.12270893 14.11996342 -55.48582086 5.11872132 -78.5625 7.625 C-89.32270141 9.28723503 -98.35249979 13.46561074 -107 20 C-107.66515625 20.47695313 -108.3303125 20.95390625 -109.015625 21.4453125 C-121.32638808 31.09035916 -127.77450656 46.88392016 -130.375 61.875 C-132.59244644 80.95783232 -128.711223 100.34167824 -116.86328125 115.78515625 C-106.41637294 127.87294021 -92.95110193 136.76350622 -76.7109375 138.20288086 C-54.11939487 139.16909338 -37.85205575 132.70566655 -21 118 C-19.67670824 116.98674944 -18.34695555 115.98157451 -17 115 C-13.43235715 116.51376081 -11.16293713 118.60513129 -8.453125 121.3515625 C-7.60878906 122.20234375 -6.76445313 123.053125 -5.89453125 123.9296875 C-5.02183594 124.81914063 -4.14914062 125.70859375 -3.25 126.625 C-2.36183594 127.5221875 -1.47367188 128.419375 -0.55859375 129.34375 C1.63216969 131.55807004 3.81812763 133.77692435 6 136 C-10.82674341 156.13052647 -32.68581907 167.8549077 -58.69921875 170.53125 C-89.77565219 173.09795935 -115.42249045 164.22566341 -139.01171875 144.30078125 C-155.28606838 129.24036912 -165.99155713 105.31596282 -167.14086914 83.30175781 C-168.14984162 51.81372433 -160.56996827 24.78968105 -138.75 1.3125 C-100.36031599 -34.7559473 -39.29687773 -33.34280534 0 0 Z " fill="#1C2346" transform="translate(1184,483)"/>
<path d="M0 0 C110.16515544 0 110.16515544 0 140.6640625 28.57421875 C157.92485983 46.4988929 166.4463217 69.53695638 166.3125 94.25 C166.30686035 95.34755615 166.3012207 96.4451123 166.29541016 97.57592773 C165.92303958 122.57452867 156.65489039 144.31413612 139 162 C138.32710937 162.68449219 137.65421875 163.36898437 136.9609375 164.07421875 C101.0121435 198.34001677 44.41419041 189 0 189 C0 126.63 0 64.26 0 0 Z M22 21 C22 69.84 22 118.68 22 169 C77.57837436 171.44601221 77.57837436 171.44601221 123.375 146.6875 C138.50578355 130.73883626 143.73137304 111.86247253 143.30859375 90.3984375 C142.44788039 70.24845908 133.82373856 53.16338112 119.25 39.3125 C91.55881902 15.37820181 57.46916414 21 22 21 Z " fill="#1C2346" transform="translate(0,461)"/>
<path d="M0 0 C45.21 0 90.42 0 137 0 C137 6.93 137 13.86 137 21 C99.05 21 61.1 21 22 21 C22 41.79 22 62.58 22 84 C55.99 84 89.98 84 125 84 C125 90.6 125 97.2 125 104 C91.01 104 57.02 104 22 104 C22 125.45 22 146.9 22 169 C60.28 169 98.56 169 138 169 C138 175.6 138 182.2 138 189 C92.46 189 46.92 189 0 189 C0 126.63 0 64.26 0 0 Z " fill="#1C2246" transform="translate(191,461)"/>
<path d="M0 0 C50.82 0 101.64 0 154 0 C154 10.56 154 21.12 154 32 C134.2 32 114.4 32 94 32 C94 83.81 94 135.62 94 189 C82.78 189 71.56 189 60 189 C60 137.19 60 85.38 60 32 C40.2 32 20.4 32 0 32 C0 21.44 0 10.88 0 0 Z " fill="#1C2246" transform="translate(708,461)"/>
<path d="M0 0 C6.93 0 13.86 0 21 0 C26.08946078 10.01601387 30.91154399 20.07006905 35.41195679 30.36178589 C41.50945564 44.29558615 47.78836687 58.13993611 54.1875 71.9375 C59.85461618 84.16362499 65.46624508 96.40879064 70.95556641 108.71606445 C75.37268693 118.61709996 79.8393656 128.49522264 84.31433105 138.37023926 C90.30288213 151.58722039 96.28272282 164.80784107 102.1875 178.0625 C102.68644775 179.17963379 103.18539551 180.29676758 103.69946289 181.44775391 C104.14281982 182.44597168 104.58617676 183.44418945 105.04296875 184.47265625 C105.42477295 185.33125244 105.80657715 186.18984863 106.19995117 187.07446289 C107 189 107 189 107 190 C99.08 190 91.16 190 83 190 C77.88296859 180.00768669 73.22214339 169.89532305 68.75323486 159.59875488 C66.78143253 155.05694262 64.79637829 150.52092232 62.8125 145.984375 C62.40834869 145.05953308 62.00419739 144.13469116 61.58779907 143.18182373 C57.65082751 134.18176198 53.64644332 125.21256753 49.625 116.25 C48.23020503 113.13944111 46.83573726 110.02873564 45.44140625 106.91796875 C44.91215294 105.73732094 44.91215294 105.73732094 44.37220764 104.53282166 C39.75030668 94.21770105 35.15443588 83.89098827 30.5625 73.5625 C30.13539734 72.60183624 29.70829468 71.64117249 29.26824951 70.65139771 C23.11086187 56.79675951 16.99330964 42.92655897 11 29 C8.45625558 31.54374442 7.3490526 34.41564958 5.9375 37.6640625 C5.63440918 38.35092133 5.33131836 39.03778015 5.01904297 39.74545288 C4.35786903 41.24495152 3.69878058 42.74537101 3.04150391 44.24658203 C1.2454058 48.34822003 -0.56607197 52.44307093 -2.375 56.5390625 C-2.75342041 57.39711487 -3.13184082 58.25516724 -3.52172852 59.13922119 C-7.26126735 67.61152763 -11.06136886 76.05610583 -14.87060547 84.49725342 C-21.28182871 98.70457124 -27.64901541 112.93050254 -33.96640015 127.17977905 C-40.30592893 141.47611445 -46.71820257 155.73927881 -53.15039062 169.99414062 C-53.51879562 170.81113937 -53.88720062 171.62813812 -54.26676941 172.46989441 C-54.95197955 173.98929561 -55.63773616 175.50845056 -56.32417297 177.02729797 C-56.63332138 177.71285263 -56.94246979 178.39840729 -57.26098633 179.10473633 C-57.65825676 179.9844384 -57.65825676 179.9844384 -58.06355286 180.88191223 C-59.40219556 183.90969951 -60.6959272 186.95716346 -62 190 C-69.59 190 -77.18 190 -85 190 C-84.09025406 185.45127028 -82.69836054 181.81946999 -80.74609375 177.68359375 C-80.41396881 176.96793747 -80.08184387 176.25228119 -79.73965454 175.51493835 C-79.02056005 173.96622239 -78.29916093 172.41857487 -77.57571411 170.87188721 C-75.61910108 166.68712647 -73.68078689 162.49391021 -71.7421875 158.30078125 C-71.34344925 157.43906311 -70.944711 156.57734497 -70.53388977 155.68951416 C-66.61788284 147.20841753 -62.83198134 138.671961 -59.0625 130.125 C-53.43507279 117.37959226 -47.67132256 104.7031715 -41.8125 92.0625 C-36.15460274 79.85414394 -30.55079201 67.62742699 -25.06860352 55.33886719 C-20.00010115 43.97967039 -14.87753928 32.64515599 -9.75 21.3125 C-9.32123566 20.36434418 -8.89247131 19.41618835 -8.45071411 18.43930054 C-7.23323011 15.74708462 -6.01516906 13.05513068 -4.796875 10.36328125 C-4.42773483 9.54703278 -4.05859467 8.7307843 -3.67826843 7.88980103 C-1.11556173 2.23112345 -1.11556173 2.23112345 0 0 Z " fill="#1C2346" transform="translate(626,460)"/>
<path d="M0 0 C4.85226664 4.40421844 8.48133593 8.96527601 9.3359375 15.61328125 C9.44229333 22.96246879 8.48603723 28.29092247 3.3515625 33.75390625 C-2.19648065 38.78106325 -6.87996068 40.49112612 -14.37109375 40.3125 C-20.2633423 39.61208412 -24.57419036 37.33282205 -28.875 33.3125 C-32.95656884 26.95005446 -34.79705457 21.07079606 -33.69921875 13.4921875 C-32.04172187 7.58446121 -28.66519456 2.66955622 -23.375 -0.5 C-15.68860958 -3.91617352 -7.4221448 -4.4740274 0 0 Z M-21 12 C-22.7246216 15.4492432 -22.36610104 19.22131431 -22 23 C-20.73854888 25.96441013 -19.77685568 27.43744933 -17.1875 29.3125 C-14.23367076 30.24084633 -12.084218 30.37765935 -9 30 C-5.51574334 27.78274576 -3.52215993 25.81936459 -2 22 C-1.76371302 17.59718587 -2.53092964 13.90061509 -4.5625 10 C-7.41620607 7.65849758 -9.32234901 6.9881839 -12.96484375 6.72265625 C-16.70386972 7.23219722 -18.44430059 9.31963232 -21 12 Z " fill="#707175" transform="translate(1219,700)"/>
<path d="M0 0 C3.980625 -0.0825 7.96125 -0.165 12.0625 -0.25 C13.30394775 -0.28641602 14.54539551 -0.32283203 15.82446289 -0.36035156 C22.44300288 -0.42662783 26.7035353 -0.11375899 32 4 C34.32241005 7.77391633 35.25941183 10.75030078 34.9375 15.125 C33.96361354 19.15039736 32.95170123 21.13774426 30 24 C29.34 24 28.68 24 28 24 C30.64 29.61 33.28 35.22 36 41 C31.71 41 27.42 41 23 41 C22.55269531 40.00097656 22.10539062 39.00195312 21.64453125 37.97265625 C21.03482251 36.66881757 20.4240918 35.36545645 19.8125 34.0625 C19.37454102 33.0734668 19.37454102 33.0734668 18.92773438 32.06445312 C17.93981122 29.89227139 17.93981122 29.89227139 16 27 C14.35 26.67 12.7 26.34 11 26 C11 30.95 11 35.9 11 41 C7.37 41 3.74 41 0 41 C0 27.47 0 13.94 0 0 Z M11 9 C11 11.97 11 14.94 11 18 C17.25586848 18.63942151 17.25586848 18.63942151 22.5625 16 C23.2740625 15.01 23.2740625 15.01 24 14 C23.23025247 11.3202093 23.23025247 11.3202093 21 9 C17.63291991 8.53912752 14.37885612 8.71473072 11 9 Z " fill="#707275" transform="translate(1057,698)"/>
<path d="M0 0 C-1.31224548 3.93673644 -2.91910327 6.22719294 -6 9 C-6.845625 8.525625 -7.69125 8.05125 -8.5625 7.5625 C-13.18995354 5.45911203 -17.09894045 4.36631348 -22 6 C-22 6.99 -22 7.98 -22 9 C-20.37191406 9.34611328 -20.37191406 9.34611328 -18.7109375 9.69921875 C-17.26542007 10.02774544 -15.82011859 10.35722333 -14.375 10.6875 C-13.66214844 10.83638672 -12.94929688 10.98527344 -12.21484375 11.13867188 C-6.93676567 12.37345161 -3.88669681 14.20299619 0 18 C1.60842789 21.21685579 1.46778535 24.5111009 1 28 C-1.25416094 32.42483445 -3.51751875 34.87082141 -8 37 C-16.58952707 39.55170051 -24.13618741 37.95354982 -32 34 C-32.99 33.34 -33.98 32.68 -35 32 C-33.68775452 28.06326356 -32.08089673 25.77280706 -29 23 C-28.3709375 23.37253906 -27.741875 23.74507812 -27.09375 24.12890625 C-21.11678597 27.43243908 -17.6834784 28.60898554 -11 27 C-11 25.68 -11 24.36 -11 23 C-12.16917969 22.76925781 -13.33835937 22.53851562 -14.54296875 22.30078125 C-16.09135439 21.97233581 -17.63952039 21.64285378 -19.1875 21.3125 C-20.34088867 21.08916992 -20.34088867 21.08916992 -21.51757812 20.86132812 C-26.68465443 19.73033717 -29.64521858 18.33841636 -33 14 C-34.57517036 10.06964704 -34.23535265 6.71990221 -32.9375 2.75 C-30.31403601 -0.97362631 -27.34740771 -3.06103692 -23.125 -4.75 C-14.8543323 -5.72301973 -7.03718402 -4.69145602 0 0 Z " fill="#6F7174" transform="translate(1346,702)"/>
<path d="M0 0 C10.56 0 21.12 0 32 0 C32 2.97 32 5.94 32 9 C25.07 9 18.14 9 11 9 C11 11.31 11 13.62 11 16 C15.95 16 20.9 16 26 16 C26 18.97 26 21.94 26 25 C21.05 25 16.1 25 11 25 C11 27.31 11 29.62 11 32 C17.93 32 24.86 32 32 32 C32 34.97 32 37.94 32 41 C21.44 41 10.88 41 0 41 C0 27.47 0 13.94 0 0 Z " fill="#717275" transform="translate(1018,698)"/>
<path d="M0 0 C4.16625 -0.0825 8.3325 -0.165 12.625 -0.25 C13.92775879 -0.28641602 15.23051758 -0.32283203 16.57275391 -0.36035156 C27.30256129 -0.46334708 27.30256129 -0.46334708 32 4 C34.91383393 7.02495471 35.45329345 9.20644035 35.5 13.375 C35.39948632 17.13923749 35.12665318 19.59168353 32.75 22.5625 C27.95856307 26.80945546 24.5688724 27.2802842 18.25 27.125 C17.55261719 27.11597656 16.85523438 27.10695313 16.13671875 27.09765625 C14.42433042 27.07419888 12.71211996 27.03833104 11 27 C11 31.62 11 36.24 11 41 C7.37 41 3.74 41 0 41 C0 27.47 0 13.94 0 0 Z M11 9 C11 11.97 11 14.94 11 18 C12.79133978 18.05391993 14.58313899 18.09275571 16.375 18.125 C17.37273437 18.14820313 18.37046875 18.17140625 19.3984375 18.1953125 C22.16262173 18.27216848 22.16262173 18.27216848 24 16 C24.41666667 13.5 24.41666667 13.5 24 11 C20.68629 8.79086 19.6553979 8.77518447 15.8125 8.875 C14.46091797 8.90207031 14.46091797 8.90207031 13.08203125 8.9296875 C12.05142578 8.96449219 12.05142578 8.96449219 11 9 Z " fill="#717275" transform="translate(1097,698)"/>
<path d="M0 0 C3.96 0 7.92 0 12 0 C15.66739436 8.88637863 18.8412567 17.9238776 22 27 C23.48006002 23.06283522 24.95889497 19.12521141 26.4375 15.1875 C26.85837891 14.06794922 27.27925781 12.94839844 27.71289062 11.79492188 C28.11572266 10.72177734 28.51855469 9.64863281 28.93359375 8.54296875 C29.30540771 7.55321045 29.67722168 6.56345215 30.06030273 5.54370117 C30.73872425 3.70725695 31.38090525 1.85728426 32 0 C35.96 0 39.92 0 44 0 C41.76288714 8.06455721 38.83433543 15.76931893 35.70166016 23.5168457 C34.86474047 25.58788823 34.03544988 27.66187241 33.20703125 29.73632812 C29.1424755 39.8575245 29.1424755 39.8575245 28 41 C25.98035801 41.07244053 23.95832876 41.08377188 21.9375 41.0625 C20.83277344 41.05347656 19.72804688 41.04445313 18.58984375 41.03515625 C17.73519531 41.02355469 16.88054687 41.01195312 16 41 C12.1411068 33.87228708 9.37988683 26.36292396 6.57128906 18.77954102 C5.74239722 16.54197657 4.90689141 14.30696606 4.0703125 12.07226562 C3.54128589 10.65378779 3.01262632 9.23517299 2.484375 7.81640625 C2.23443787 7.14670303 1.98450073 6.47699982 1.72698975 5.78700256 C0 1.11688537 0 1.11688537 0 0 Z " fill="#6F7175" transform="translate(1267,698)"/>
<path d="M0 0 C2.64 0 5.28 0 8 0 C8.35827881 0.7520874 8.71655762 1.5041748 9.08569336 2.27905273 C10.70077825 5.66624829 12.31909397 9.05189012 13.9375 12.4375 C14.50146484 13.62150391 15.06542969 14.80550781 15.64648438 16.02539062 C16.18466797 17.15009766 16.72285156 18.27480469 17.27734375 19.43359375 C18.02359009 20.99678345 18.02359009 20.99678345 18.78491211 22.59155273 C19.78825253 24.89252199 19.78825253 24.89252199 21 26 C24.96 17.42 28.92 8.84 33 0 C35.64 0 38.28 0 41 0 C41 13.53 41 27.06 41 41 C39.35 41 37.7 41 36 41 C35.67 30.77 35.34 20.54 35 10 C31.17885378 18.08908595 31.17885378 18.08908595 27.37182617 26.18481445 C26.89205322 27.1924585 26.41228027 28.20010254 25.91796875 29.23828125 C25.43094482 30.26993408 24.9439209 31.30158691 24.44213867 32.36450195 C23.15288965 34.72059526 22.01309072 36.25845459 20 38 C18.76627904 35.73154534 17.53804473 33.46036842 16.3125 31.1875 C15.97283203 30.56423828 15.63316406 29.94097656 15.28320312 29.29882812 C12.22842517 23.61751211 9.68932662 17.91651856 7 12 C6.67 21.57 6.34 31.14 6 41 C4.02 41 2.04 41 0 41 C0 27.47 0 13.94 0 0 Z " fill="#6D6F73" transform="translate(955,698)"/>
<path d="M0 0 C12.21 0 24.42 0 37 0 C37 2.97 37 5.94 37 9 C32.71 9 28.42 9 24 9 C24 19.56 24 30.12 24 41 C20.37 41 16.74 41 13 41 C13 30.44 13 19.88 13 9 C8.71 9 4.42 9 0 9 C0 6.03 0 3.06 0 0 Z " fill="#717275" transform="translate(1229,698)"/>
<path d="M0 0 C12.21 0 24.42 0 37 0 C37 2.97 37 5.94 37 9 C32.71 9 28.42 9 24 9 C24 19.56 24 30.12 24 41 C20.37 41 16.74 41 13 41 C13 30.44 13 19.88 13 9 C8.71 9 4.42 9 0 9 C0 6.03 0 3.06 0 0 Z " fill="#717275" transform="translate(1148,698)"/>
<path d="M0 0 C4.74965603 2.85358576 7.98930033 7.19824416 10.39453125 12.11328125 C11.6752445 19.08605337 11.76960237 25.96457267 7.95703125 32.17578125 C3.75266506 36.79876399 -0.72592262 40.73342738 -7.1015625 41.38671875 C-13.61771212 41.6724184 -18.19275205 39.9654522 -23.73046875 36.48828125 C-28.75069887 31.46805113 -30.30473111 26.7654047 -30.54296875 19.67578125 C-30.32915355 14.07123121 -29.77471725 9.51961548 -26.04296875 5.17578125 C-18.10876801 -1.35489662 -9.81280579 -4.08383042 0 0 Z M-20.04296875 7.17578125 C-24.21211532 12.41393976 -25.59024299 16.49903547 -25.04296875 23.17578125 C-23.27763482 28.31827576 -20.89391985 32.48080842 -16.04296875 35.17578125 C-11.61879431 36.3555611 -8.16599876 36.54292568 -3.79296875 35.11328125 C0.00125233 32.44008003 2.85574654 29.37835066 4.95703125 25.17578125 C5.48088885 19.9200296 5.62208497 15.5305203 3.26953125 10.73828125 C-0.74699962 6.28753082 -3.66045291 3.5009148 -9.921875 3.015625 C-13.84670505 3.31197497 -16.91379207 4.84450993 -20.04296875 7.17578125 Z " fill="#6D7074" transform="translate(937.04296875,698.82421875)"/>
<path d="M0 0 C4.49593754 2.99452666 7.42589085 7.33626631 9.1171875 12.41015625 C9.74888006 19.98011134 10.1334185 27.27920725 5.1171875 33.41015625 C-0.70376667 38.84940851 -5.59190123 40.81364001 -13.51171875 40.68359375 C-19.24477987 40.02244996 -23.41762567 37.22867746 -27.2578125 33.03515625 C-31.45520418 27.66295113 -32.68651698 22.18423689 -31.8828125 15.41015625 C-30.51238759 9.38719633 -27.59347808 4.42964065 -22.8828125 0.41015625 C-15.41268817 -3.9512828 -7.6372313 -3.68648362 0 0 Z M-21.328125 6.84375 C-25.60483604 11.74363893 -26.23719832 15.62571162 -26.1640625 21.90625 C-25.62452052 26.70967235 -22.88849919 29.34700175 -19.6953125 32.72265625 C-15.82129205 35.04706852 -12.37780603 35.60869837 -7.8828125 35.41015625 C-2.22692149 33.48928761 0.62837856 30.23889324 3.3671875 25.03515625 C5.06782967 19.08290867 4.31873731 14.51810975 1.375 9.20703125 C-1.48244338 5.12496928 -5.10536432 3.34791393 -9.8828125 2.47265625 C-14.61941257 2.11177244 -17.91692774 3.4602111 -21.328125 6.84375 Z " fill="#6D7074" transform="translate(836.8828125,699.58984375)"/>
<path d="M0 0 C2.5 2.6875 2.5 2.6875 4 5 C2.68 5.99 1.36 6.98 0 8 C-0.804375 7.360625 -1.60875 6.72125 -2.4375 6.0625 C-6.42305305 3.44610164 -10.25974899 2.68719156 -15 3 C-18.96404485 3.99975029 -21.87381571 5.53437425 -24.38671875 8.8046875 C-26.82186031 13.19648667 -27.72049353 16.95654527 -27 22 C-25.56754146 26.50080168 -23.73286769 29.92153366 -19.6875 32.5 C-14.13797376 34.7574344 -10.86202624 34.7574344 -5.3125 32.5 C-1.17445041 29.9276989 0.16679947 26.39968127 2 22 C-2.62 22 -7.24 22 -12 22 C-12 20.35 -12 18.7 -12 17 C-5.73 17 0.54 17 7 17 C7 28.91111111 7 28.91111111 2.41796875 33.62890625 C-2.83991755 38.38276859 -7.36488342 40.56631781 -14.52734375 40.375 C-20.78438384 39.42606501 -26.29437463 36.48966009 -30.0625 31.375 C-33.69699129 25.04395065 -33.48534504 19.15663317 -33 12 C-30.78391773 5.4683891 -26.07557264 1.11567827 -20 -2 C-13.46871187 -4.47738515 -5.97323065 -3.38306869 0 0 Z " fill="#6E7074" transform="translate(674,700)"/>
<path d="M0 0 C6 0 6 0 7.53222656 1.24658203 C7.89799805 1.82778809 8.26376953 2.40899414 8.640625 3.0078125 C9.28004028 3.98427734 9.28004028 3.98427734 9.93237305 4.98046875 C10.36718994 5.68816406 10.80200684 6.39585937 11.25 7.125 C12.19775674 8.58688638 13.14700919 10.04780401 14.09765625 11.5078125 C14.81332764 12.62591309 14.81332764 12.62591309 15.54345703 13.76660156 C17.81826428 17.25469019 20.24827204 20.62586355 22.6875 24 C24.110625 25.98 25.53375 27.96 27 30 C27.33 20.1 27.66 10.2 28 0 C29.65 0 31.3 0 33 0 C33 13.53 33 27.06 33 41 C27 41 27 41 25.25244141 39.43041992 C24.79015137 38.70443604 24.32786133 37.97845215 23.8515625 37.23046875 C23.32046875 36.42287109 22.789375 35.61527344 22.2421875 34.78320312 C21.44167969 33.49833008 21.44167969 33.49833008 20.625 32.1875 C15.94499862 24.94382139 11.08814041 17.99619306 6 11 C5.67 20.9 5.34 30.8 5 41 C3.35 41 1.7 41 0 41 C0 27.47 0 13.94 0 0 Z " fill="#6F7174" transform="translate(531,698)"/>
<path d="M0 0 C23.89883268 0 23.89883268 0 30.05859375 6.0078125 C34.16494554 12.31274924 35.94568604 17.90151876 34.55078125 25.421875 C33.04206615 30.61952935 30.91164422 34.26615779 27 38 C20 41 20 41 0 41 C0 27.47 0 13.94 0 0 Z M5 5 C5 15.23 5 25.46 5 36 C17.51514516 36.92360181 17.51514516 36.92360181 22.625 34.4375 C26.7892572 30.16365708 29.1822212 26.52362707 29.5625 20.5625 C29.3088772 15.44631602 27.345645 11.81081489 24 8 C18.03880399 3.2310432 13.35366481 5 5 5 Z " fill="#6F7174" transform="translate(765,698)"/>
<path d="M0 0 C3.50625 -0.0825 7.0125 -0.165 10.625 -0.25 C11.71893066 -0.28641602 12.81286133 -0.32283203 13.93994141 -0.36035156 C19.96509533 -0.42888202 23.45890819 -0.08551302 28 4 C30.82605874 8.2390881 30.66012246 12.02124503 30 17 C27.94892412 20.39488422 26.29515379 21.80323081 23 24 C23.5053125 25.05960938 24.010625 26.11921875 24.53125 27.2109375 C25.18770131 28.59886314 25.84394033 29.98688919 26.5 31.375 C27.00080078 32.42300781 27.00080078 32.42300781 27.51171875 33.4921875 C30 38.7734375 30 38.7734375 30 41 C28.02 41 26.04 41 24 41 C22.82592979 38.73272667 21.66060261 36.46165376 20.5 34.1875 C20.16613281 33.54490234 19.83226562 32.90230469 19.48828125 32.24023438 C17.99760916 29.30452301 17 27.33873483 17 24 C13.04 24 9.08 24 5 24 C5 29.61 5 35.22 5 41 C3.35 41 1.7 41 0 41 C0 27.47 0 13.94 0 0 Z M5 5 C5 9.62 5 14.24 5 19 C7.39774745 19.13572155 9.78775245 19.23436868 12.1875 19.3125 C12.86103516 19.35439453 13.53457031 19.39628906 14.22851562 19.43945312 C18.18217688 19.53588389 19.82986094 19.13250359 22.984375 16.67578125 C25.30227205 14.14212989 25.30227205 14.14212989 25.0625 10.875 C23.81124193 7.48924287 23.13157645 6.72514955 20 5 C17.3270555 4.78673315 14.9073788 4.71454369 12.25 4.8125 C11.55261719 4.82603516 10.85523438 4.83957031 10.13671875 4.85351562 C8.42414459 4.8887055 6.71197059 4.94250845 5 5 Z " fill="#6F7174" transform="translate(689,698)"/>
<path d="M0 0 C2.31 0 4.62 0 7 0 C9.14277039 5.35426651 11.27883415 10.71114033 13.40869141 16.07055664 C14.13438544 17.8938832 14.86191585 19.71647997 15.59130859 21.53833008 C16.63861498 24.15517113 17.67931744 26.77455439 18.71875 29.39453125 C19.04685669 30.21025101 19.37496338 31.02597076 19.7130127 31.8664093 C20.01332397 32.62697128 20.31363525 33.38753326 20.62304688 34.17114258 C20.88952026 34.83954666 21.15599365 35.50795074 21.43054199 36.1966095 C22 38 22 38 22 41 C20.02 41 18.04 41 16 41 C15.3291288 39.3767313 14.66342971 37.75132422 14 36.125 C13.62875 35.22007812 13.2575 34.31515625 12.875 33.3828125 C12 31 12 31 12 29 C6.06 29 0.12 29 -6 29 C-6.474375 30.60875 -6.94875 32.2175 -7.4375 33.875 C-8.875 38.75 -8.875 38.75 -10 41 C-11.98 41 -13.96 41 -16 41 C-13.59517797 33.39033587 -10.68318271 26.01037134 -7.70166016 18.61352539 C-6.86737135 16.54357256 -6.03689438 14.47212124 -5.20703125 12.40039062 C-1.16449458 2.32898915 -1.16449458 2.32898915 0 0 Z M3 7 C-1.20744938 15.20722026 -1.20744938 15.20722026 -3 24 C1.29 24 5.58 24 10 24 C8.02 18.39 6.04 12.78 4 7 C3.67 7 3.34 7 3 7 Z " fill="#6E7074" transform="translate(738,698)"/>
<path d="M0 0 C9.57 0 19.14 0 29 0 C29 1.65 29 3.3 29 5 C21.08 5 13.16 5 5 5 C5 9.29 5 13.58 5 18 C10.28 18 15.56 18 21 18 C21 19.65 21 21.3 21 23 C15.72 23 10.44 23 5 23 C5 27.29 5 31.58 5 36 C12.92 36 20.84 36 29 36 C29 37.65 29 39.3 29 41 C19.43 41 9.86 41 0 41 C0 27.47 0 13.94 0 0 Z " fill="#717275" transform="translate(609,698)"/>
<path d="M0 0 C2.5 1.6875 2.5 1.6875 4 3 C3.67 4.32 3.34 5.64 3 7 C-0.9591392 7 -1.62703965 6.84095724 -4.75 4.9375 C-8.46979962 2.99463068 -11.00288611 2.57474339 -15.11328125 3.3984375 C-19.87434123 4.91645662 -22.39138338 6.94506452 -24.875 11.25 C-26.38582652 16.28608839 -27.13320971 20.2977307 -25.0859375 25.1796875 C-22.5133075 29.71083583 -20.10523495 32.36632482 -15 34 C-8.3309393 34.71454222 -4.43268535 32.62179024 1 29 C1.99 29.99 2.98 30.98 4 32 C2.60915583 35.46618756 1.33959746 36.73795668 -2.0625 38.25 C-8.64817726 40.90534507 -14.1344783 40.98177842 -20.75 38.375 C-26.05264727 35.76532019 -30.00276077 31.65884448 -32 26 C-33.59378902 18.16387063 -32.955611 11.49082671 -28.5 4.6875 C-21.17754078 -4.28206497 -9.84520889 -4.74107673 0 0 Z " fill="#6D6F73" transform="translate(898,700)"/>
<path d="M0 0 C10.89 0 21.78 0 33 0 C33 1.65 33 3.3 33 5 C28.38 5 23.76 5 19 5 C19 16.88 19 28.76 19 41 C17.35 41 15.7 41 14 41 C14 29.12 14 17.24 14 5 C9.38 5 4.76 5 0 5 C0 3.35 0 1.7 0 0 Z " fill="#717275" transform="translate(570,698)"/>
<path d="M0 0 C1.65 0 3.3 0 5 0 C5 13.53 5 27.06 5 41 C3.35 41 1.7 41 0 41 C0 27.47 0 13.94 0 0 Z " fill="#717275" transform="translate(516,698)"/>
<path d="M0 0 C0.66 0.33 1.32 0.66 2 1 C-3.61 6.61 -9.22 12.22 -15 18 C-15 12.78391019 -10.50427167 9.58349868 -7 6 C-4.72395669 3.90689101 -2.40160434 1.95130352 0 0 Z " fill="#4CA5C2" transform="translate(488,37)"/>
<path d="M0 0 C0.99 0.33 1.98 0.66 3 1 C-1.29 5.29 -5.58 9.58 -10 14 C-10.33 13.34 -10.66 12.68 -11 12 C-3.70159453 3.55353075 -3.70159453 3.55353075 0 0 Z " fill="#1E96BA" transform="translate(355,181)"/>
</svg>
